<svg width="128" height="38" viewBox="0 0 128 38" fill="none" xmlns="http://www.w3.org/2000/svg">
<mask id="path-1-inside-1_809_6396" fill="white">
<path d="M128 9.55957V28.1553L118.44 37.7148H9.24902L0 28.4658V9.24902L9.24902 0H118.44L128 9.55957Z"/>
</mask>
<path d="M128 9.55957H129V9.14536L128.707 8.85246L128 9.55957ZM128 28.1553L128.707 28.8624L129 28.5695V28.1553H128ZM118.44 37.7148V38.7148H118.855L119.148 38.422L118.44 37.7148ZM9.24902 37.7148L8.54192 38.422L8.83481 38.7148H9.24902V37.7148ZM0 28.4658H-1V28.88L-0.707107 29.1729L0 28.4658ZM0 9.24902L-0.707107 8.54192L-1 8.83481V9.24902H0ZM9.24902 0V-1H8.83481L8.54192 -0.707107L9.24902 0ZM118.44 0L119.148 -0.707107L118.855 -1H118.44V0ZM128 9.55957H127V28.1553H128H129V9.55957H128ZM128 28.1553L127.293 27.4482L117.733 37.0077L118.44 37.7148L119.148 38.422L128.707 28.8624L128 28.1553ZM118.44 37.7148V36.7148H9.24902V37.7148V38.7148H118.44V37.7148ZM9.24902 37.7148L9.95613 37.0077L0.707107 27.7587L0 28.4658L-0.707107 29.1729L8.54192 38.422L9.24902 37.7148ZM0 28.4658H1V9.24902H0H-1V28.4658H0ZM0 9.24902L0.707107 9.95613L9.95613 0.707107L9.24902 0L8.54192 -0.707107L-0.707107 8.54192L0 9.24902ZM9.24902 0V1H118.44V0V-1H9.24902V0ZM118.44 0L117.733 0.707107L127.293 10.2667L128 9.55957L128.707 8.85246L119.148 -0.707107L118.44 0Z" fill="#1D262B" mask="url(#path-1-inside-1_809_6396)"/>
</svg>
