<svg width="98" height="36" viewBox="0 0 98 36" fill="none" xmlns="http://www.w3.org/2000/svg">
<mask id="path-1-inside-1_809_4647" fill="white">
<path d="M98 7.51172V28.1846L90.1846 36H9.14258L0 26.8574V8.83887L8.83887 0H90.4883L98 7.51172Z"/>
</mask>
<path d="M98 7.51172V28.1846L90.1846 36H9.14258L0 26.8574V8.83887L8.83887 0H90.4883L98 7.51172Z" fill="white"/>
<path d="M98 7.51172H99V7.09751L98.7071 6.80461L98 7.51172ZM98 28.1846L98.7071 28.8917L99 28.5988V28.1846H98ZM90.1846 36V37H90.5988L90.8917 36.7071L90.1846 36ZM9.14258 36L8.43547 36.7071L8.72836 37H9.14258V36ZM0 26.8574H-1V27.2716L-0.707107 27.5645L0 26.8574ZM0 8.83887L-0.707107 8.13176L-1 8.42465V8.83887H0ZM8.83887 0V-1H8.42465L8.13176 -0.707107L8.83887 0ZM90.4883 0L91.1954 -0.707107L90.9025 -1H90.4883V0ZM98 7.51172H97V28.1846H98H99V7.51172H98ZM98 28.1846L97.2929 27.4775L89.4775 35.2929L90.1846 36L90.8917 36.7071L98.7071 28.8917L98 28.1846ZM90.1846 36V35H9.14258V36V37H90.1846V36ZM9.14258 36L9.84968 35.2929L0.707107 26.1503L0 26.8574L-0.707107 27.5645L8.43547 36.7071L9.14258 36ZM0 26.8574H1V8.83887H0H-1V26.8574H0ZM0 8.83887L0.707107 9.54597L9.54597 0.707107L8.83887 0L8.13176 -0.707107L-0.707107 8.13176L0 8.83887ZM8.83887 0V1H90.4883V0V-1H8.83887V0ZM90.4883 0L89.7812 0.707107L97.2929 8.21883L98 7.51172L98.7071 6.80461L91.1954 -0.707107L90.4883 0Z" fill="#1D262B" mask="url(#path-1-inside-1_809_4647)"/>
</svg>
