<?xml version="1.0" encoding="UTF-8"?>
<svg id="_レイヤー_2" data-name="レイヤー 2" xmlns="http://www.w3.org/2000/svg" viewBox="0 0 146 58">
  <defs>
    <style>
      .cls-1 {
        fill: #fff;
      }

      .cls-2 {
        fill: #1d262b;
      }
    </style>
  </defs>
  <g id="_レイヤー_1-2" data-name="レイヤー 1">
    <path class="cls-2" d="M145.58,9.25L135.78.26l-.29-.26H10.31l-.29.26L.32,9.15l-.32.3v38.91l.32.3,9.8,8.98.58.35h124.4l.58-.35,9.9-9.08.42-.65V9.89l-.42-.64ZM11.09,2h123.63l9.29,8.51v36.79l-9.49,8.7H11.29l-9.29-8.52V10.33L11.09,2Z"/>
    <polygon class="cls-1" points="144.9 9.98 135.1 1 10.7 1 1 9.89 1 47.92 10.8 56.91 10.7 57 135.1 57 135 56.91 144.9 47.83 145 47.92 145 9.89 144.9 9.98"/>
  </g>
</svg>