<svg width="124" height="66" viewBox="0 0 124 66" fill="none" xmlns="http://www.w3.org/2000/svg">
<mask id="path-1-inside-1_1008_806" fill="white">
<path d="M123.899 8.98242L124 8.88965V56.9248L123.899 56.833L114 65.9082L114.101 66H9.69824L9.79883 65.9082L0 56.9248V8.88965L9.69824 0H114.101L123.899 8.98242Z"/>
</mask>
<path d="M123.899 8.98242L123.224 9.71957L123.901 10.3409L124.577 9.7175L123.899 8.98242ZM124 8.88965H125V6.60692L123.322 8.15457L124 8.88965ZM124 56.9248L123.326 57.6634L125 59.1913V56.9248H124ZM123.899 56.833L124.574 56.0944L123.898 55.4778L123.224 56.0959L123.899 56.833ZM114 65.9082L113.324 65.1711L112.518 65.9099L113.326 66.6468L114 65.9082ZM114.101 66V67H116.68L114.775 65.2614L114.101 66ZM9.69824 66L9.02414 65.2614L7.11904 67H9.69824V66ZM9.79883 65.9082L10.4729 66.6468L11.2804 65.9099L10.4746 65.1711L9.79883 65.9082ZM0 56.9248H-1V57.3647L-0.675771 57.6619L0 56.9248ZM0 8.88965L-0.675708 8.15248L-1 8.44973V8.88965H0ZM9.69824 0V-1H9.30927L9.02253 -0.73717L9.69824 0ZM114.101 0L114.776 -0.737148L114.49 -1H114.101V0ZM123.899 8.98242L124.577 9.7175L124.678 9.62473L124 8.88965L123.322 8.15457L123.221 8.24734L123.899 8.98242ZM124 8.88965H123V56.9248H124H125V8.88965H124ZM124 56.9248L124.674 56.1862L124.574 56.0944L123.899 56.833L123.225 57.5716L123.326 57.6634L124 56.9248ZM123.899 56.833L123.224 56.0959L113.324 65.1711L114 65.9082L114.676 66.6453L124.575 57.5701L123.899 56.833ZM114 65.9082L113.326 66.6468L113.426 66.7386L114.101 66L114.775 65.2614L114.674 65.1696L114 65.9082ZM114.101 66V65H9.69824V66V67H114.101V66ZM9.69824 66L10.3723 66.7386L10.4729 66.6468L9.79883 65.9082L9.12473 65.1696L9.02414 65.2614L9.69824 66ZM9.79883 65.9082L10.4746 65.1711L0.675771 56.1877L0 56.9248L-0.675771 57.6619L9.12306 66.6453L9.79883 65.9082ZM0 56.9248H1V8.88965H0H-1V56.9248H0ZM0 8.88965L0.675708 9.62682L10.374 0.73717L9.69824 0L9.02253 -0.73717L-0.675708 8.15248L0 8.88965ZM9.69824 0V1H114.101V0V-1H9.69824V0ZM114.101 0L113.425 0.737148L123.224 9.71957L123.899 8.98242L124.575 8.24527L114.776 -0.737148L114.101 0Z" fill="#1D262B" mask="url(#path-1-inside-1_1008_806)"/>
</svg>
