<svg width="263" height="53" viewBox="0 0 263 53" fill="none" xmlns="http://www.w3.org/2000/svg">
<mask id="path-1-inside-1_809_6035" fill="white">
<path fill-rule="evenodd" clip-rule="evenodd" d="M249 0L263 14V39L249 53H14L0 39V14L14 0H249Z"/>
</mask>
<path d="M249 0L249.707 -0.707107L249.414 -1H249V0ZM263 14H264V13.5858L263.707 13.2929L263 14ZM263 39L263.707 39.7071L264 39.4142V39H263ZM249 53V54H249.414L249.707 53.7071L249 53ZM14 53L13.2929 53.7071L13.5858 54H14V53ZM0 39H-1V39.4142L-0.707107 39.7071L0 39ZM0 14L-0.707107 13.2929L-1 13.5858V14H0ZM14 0V-1H13.5858L13.2929 -0.707107L14 0ZM249 0L248.293 0.707107L262.293 14.7071L263 14L263.707 13.2929L249.707 -0.707107L249 0ZM263 14H262V39H263H264V14H263ZM263 39L262.293 38.2929L248.293 52.2929L249 53L249.707 53.7071L263.707 39.7071L263 39ZM249 53V52H14V53V54H249V53ZM14 53L14.7071 52.2929L0.707107 38.2929L0 39L-0.707107 39.7071L13.2929 53.7071L14 53ZM0 39H1V14H0H-1V39H0ZM0 14L0.707107 14.7071L14.7071 0.707107L14 0L13.2929 -0.707107L-0.707107 13.2929L0 14ZM14 0V1H249V0V-1H14V0Z" fill="#1D262B" mask="url(#path-1-inside-1_809_6035)"/>
</svg>
